<svg width="150" height="150" viewBox="0 0 150 150" fill="none" xmlns="http://www.w3.org/2000/svg">
<g clip-path="url(#clip0)">
<path d="M131.843 64.1426C131.072 66.9726 129.598 70.3975 126.314 75.1582C125.596 74.6928 124.91 74.179 124.263 73.6201C120.703 70.5586 118.822 66.6152 118.52 61.5674C118.471 60.5343 118.218 59.5211 117.775 58.5867C117.332 57.6522 116.707 56.8151 115.938 56.1239C115.168 55.4326 114.269 54.901 113.293 54.56C112.316 54.2189 111.282 54.0751 110.25 54.137C109.217 54.1989 108.207 54.4652 107.278 54.9204C106.35 55.3757 105.521 56.0108 104.839 56.789C104.158 57.5672 103.638 58.4729 103.31 59.4536C102.981 60.4343 102.851 61.4705 102.926 62.5019C103.512 72.0703 107.614 80.2178 114.79 86.0625L115.083 86.2969C110.891 89.1579 106.332 91.4383 101.529 93.0762C100.398 88.1836 98.8212 83.4961 97.2946 78.9434C94.5316 70.7402 91.9239 62.9678 91.6543 54.293C91.5342 50.4844 91.6836 46.0576 91.9766 41.5518C99.8643 40.9658 112.879 38.6865 121.221 30.3955C121.963 29.6758 122.555 28.8161 122.962 27.866C123.37 26.916 123.584 25.8946 123.594 24.861C123.603 23.8274 123.407 22.8023 123.018 21.8449C122.628 20.8875 122.052 20.017 121.324 19.2838C120.595 18.5506 119.728 17.9693 118.773 17.5736C117.818 17.1778 116.794 16.9756 115.76 16.9785C114.727 16.9815 113.704 17.1896 112.751 17.5907C111.798 17.9918 110.935 18.5781 110.21 19.3154C106.278 23.2236 99.2167 24.9844 93.4592 25.6963C94.3704 17.9385 95.2817 12.1435 95.3022 12.0205C95.6067 9.98366 95.0943 7.90901 93.8765 6.24804C92.6588 4.58707 90.8342 3.47423 88.7999 3.15171C86.7656 2.82918 84.6862 3.32306 83.0143 4.52588C81.3424 5.7287 80.2133 7.5431 79.8727 9.57421C79.6939 10.7051 75.4776 37.4326 76.0285 54.7793C76.3713 65.7568 79.6148 75.4072 82.4745 83.9209C87.0512 97.5381 90.6405 108.208 83.336 121.714C79.6415 111.552 74.5903 101.935 68.3195 93.126C65.5507 89.2441 62.6323 85.3301 59.5294 81.1846C52.7318 72.0059 45.4067 62.1914 39.9861 52.9248C47.112 48.8906 56.3797 39.7412 58.7969 19.21C58.9168 18.1904 58.8346 17.1573 58.5552 16.1695C58.2757 15.1817 57.8044 14.2586 57.1681 13.4529C56.5319 12.6472 55.7431 11.9748 54.847 11.4739C53.9508 10.973 52.9647 10.6535 51.9451 10.5337C50.9254 10.4138 49.8921 10.496 48.9042 10.7754C47.9163 11.0549 46.9931 11.5261 46.1873 12.1623C45.3816 12.7985 44.709 13.5871 44.2081 14.4832C43.7071 15.3793 43.3876 16.3652 43.2678 17.3848C41.7207 30.5449 36.8217 36.2783 33.2588 38.7451C32.3629 36.1631 31.8208 33.4716 31.6473 30.7441C31.5298 28.6909 30.6071 26.7668 29.0796 25.3896C27.552 24.0123 25.5428 23.2931 23.4881 23.388C21.4335 23.4829 19.4991 24.3842 18.105 25.8964C16.7109 27.4086 15.9696 29.4095 16.0419 31.4648C16.7949 47.7568 28.6059 65.5225 41.4658 83.0273C32.7079 83.3203 21.7731 82.2305 16.3379 76.6084C15.6227 75.8692 14.7687 75.2785 13.8248 74.87C12.8808 74.4616 11.8655 74.2435 10.8371 74.2283C9.80866 74.213 8.78734 74.4009 7.8317 74.7812C6.87606 75.1615 6.00491 75.7267 5.2682 76.4443C2.14185 79.4912 2.26491 84.5947 5.33266 87.6973C12.2563 94.7021 22.9128 98.3965 37.0385 98.6748C37.604 98.6748 38.1607 98.6924 38.7145 98.6924C43.2757 98.6826 47.8306 98.3507 52.345 97.6992C53.4623 99.2168 54.5494 100.715 55.6061 102.193C69.3626 121.447 72.3425 140.171 72.363 140.332C72.5789 141.791 73.2037 143.159 74.1651 144.278C75.1264 145.397 76.385 146.221 77.7951 146.655C79.2053 147.088 80.7093 147.113 82.1332 146.727C83.5572 146.342 84.8427 145.561 85.8411 144.475C88.8697 141.201 91.6345 137.693 94.1097 133.983C97.3362 134.842 100.642 135.37 103.975 135.56C104.696 135.595 105.397 135.612 106.079 135.612C117.975 135.612 124.26 130.181 127.468 125.479C128.573 123.766 128.965 121.689 128.56 119.692C128.155 117.695 126.986 115.935 125.301 114.788C123.616 113.641 121.55 113.197 119.543 113.553C117.535 113.908 115.747 115.034 114.558 116.689C111.901 120.586 105.546 120.302 101.08 119.517C102.128 116.105 102.771 112.582 102.996 109.02C124.523 102.574 135.652 90.2344 141.26 80.7158C143.541 76.8498 145.352 72.7248 146.654 68.4287C146.988 67.3117 147.064 66.1334 146.877 64.9827C146.69 63.8319 146.244 62.7385 145.574 61.7847C144.903 60.831 144.025 60.0418 143.005 59.4764C141.985 58.911 140.851 58.5842 139.686 58.5205C137.934 58.4218 136.2 58.9257 134.773 59.9484C133.346 60.9711 132.312 62.4511 131.843 64.1426Z" fill="#F4A590"/>
<path d="M80.0953 150C77.504 149.998 74.9997 149.065 73.0389 147.371C71.078 145.677 69.791 143.335 69.4124 140.772C69.389 140.614 66.3945 122.432 53.1859 103.922C52.509 102.976 51.7883 101.977 50.9972 100.89C46.3528 101.478 41.6724 101.733 36.9916 101.655C22.0719 101.362 10.7092 97.3686 3.21714 89.7895C1.13319 87.6731 -0.0268466 84.8171 -0.00882635 81.8471C-0.00394649 80.4398 0.280944 79.0475 0.829253 77.7513C1.37756 76.4551 2.17833 75.281 3.18491 74.2973C4.2033 73.3049 5.40768 72.5234 6.72892 71.9975C8.05017 71.4717 9.46226 71.212 10.8842 71.2332C12.3061 71.2544 13.7098 71.5562 15.0147 72.1213C16.3197 72.6863 17.5002 73.5035 18.4885 74.5258C22.2711 78.437 29.4966 79.6938 35.5705 79.9956C24.1434 64.1254 13.7945 47.5258 13.0591 31.6059C12.9842 30.1839 13.1913 28.761 13.6685 27.4194C14.1458 26.0777 14.8837 24.8436 15.8398 23.7882C16.7959 22.7328 17.9513 21.8769 19.2396 21.2697C20.5278 20.6626 21.9235 20.3162 23.3461 20.2505C24.7688 20.1849 26.1904 20.4012 27.5291 20.887C28.8679 21.3729 30.0973 22.1187 31.1466 23.0815C32.1959 24.0444 33.0444 25.2052 33.6432 26.4972C34.2421 27.7892 34.5794 29.1869 34.6359 30.6098C34.676 31.4029 34.7601 32.1932 34.8878 32.977C37.0883 30.0151 39.3561 25.102 40.3055 17.0366C40.6716 14.219 42.1336 11.6592 44.3746 9.91207C46.6155 8.16496 49.4548 7.37133 52.277 7.7032C55.0992 8.03507 57.6768 9.4657 59.4512 11.685C61.2257 13.9043 62.0538 16.7334 61.7562 19.559C59.4825 38.895 51.3517 48.8237 44.0471 53.895C49.1893 62.268 55.6647 70.9575 61.9437 79.3832C65.0496 83.5493 67.9708 87.4721 70.7573 91.3774C75.7556 98.3848 79.9984 105.901 83.415 113.801C86.181 104.309 83.333 95.8393 79.647 84.8735C76.717 76.1606 73.4002 66.2905 73.0427 54.8706C72.5065 37.2426 76.758 10.2544 76.9308 9.10885C77.3934 6.29303 78.9518 3.77473 81.2655 2.10419C83.5792 0.43364 86.4601 -0.253337 89.2788 0.193359C92.0975 0.640054 94.6248 2.18411 96.3085 4.48814C97.9922 6.79218 98.6954 9.66889 98.2644 12.4897C98.2322 12.686 97.6257 16.5678 96.9195 22.1196C102.003 21.0942 105.903 19.3862 108.109 17.2006C109.109 16.2008 110.297 15.4087 111.605 14.8702C112.912 14.3317 114.313 14.0573 115.727 14.0629H115.763C117.899 14.0692 119.985 14.7086 121.757 15.9004C123.53 17.0922 124.909 18.7828 125.721 20.7584C126.533 22.734 126.74 24.9059 126.317 26.9994C125.895 29.093 124.86 31.0142 123.345 32.52C115.411 40.4038 103.908 43.31 94.8246 44.2973C94.6253 48.0913 94.5696 51.4165 94.6575 54.2055C94.9125 62.4379 97.4528 69.9936 100.143 77.9946C101.347 81.5805 102.586 85.2631 103.62 89.0952C105.867 88.1775 108.049 87.1097 110.152 85.8989C104.007 79.77 100.491 71.8188 99.9374 62.6958C99.7657 59.8368 100.737 57.0267 102.637 54.8837C104.538 52.7406 107.212 51.4402 110.071 51.2685C111.487 51.1835 112.905 51.3781 114.246 51.8413C115.587 52.3045 116.823 53.0271 117.884 53.968C120.027 55.8682 121.328 58.5419 121.5 61.4008C121.737 65.3559 123.044 68.3676 125.602 70.8139C127.251 68.101 128.341 65.6899 128.971 63.3725C129.514 61.416 130.602 59.6542 132.109 58.2925C133.615 56.9307 135.477 56.0251 137.479 55.6812C139.48 55.3373 141.538 55.5693 143.412 56.3501C145.287 57.1309 146.901 58.4284 148.066 60.0913C148.995 61.4131 149.609 62.9293 149.863 64.5245C150.117 66.1196 150.003 67.7517 149.531 69.2963C148.161 73.8165 146.256 78.1568 143.856 82.2251C138.256 91.729 127.155 104.344 105.824 111.267C105.623 113.184 105.31 115.088 104.886 116.968C108.514 117.194 111.083 116.517 112.118 114.999C113.731 112.633 116.219 111.005 119.033 110.472C121.848 109.94 124.759 110.547 127.125 112.161C129.492 113.774 131.121 116.261 131.653 119.076C132.185 121.89 131.578 124.8 129.964 127.166C126.404 132.384 119.375 138.607 106.108 138.607C105.37 138.607 104.608 138.586 103.849 138.548C101.019 138.39 98.2078 137.998 95.4428 137.376C93.1824 140.569 90.717 143.612 88.062 146.485C87.0493 147.59 85.8185 148.472 84.4472 149.078C83.076 149.683 81.5941 149.997 80.0953 150ZM52.3567 94.7026C52.8264 94.7022 53.2896 94.8126 53.7086 95.0249C54.1276 95.2372 54.4906 95.5453 54.7681 95.9243C55.9987 97.603 57.074 99.0825 58.0497 100.451C72.1959 120.273 75.293 139.691 75.3369 139.884C75.4699 140.789 75.856 141.637 76.4506 142.332C77.0453 143.027 77.8243 143.539 78.6977 143.81C79.1548 143.953 79.6311 144.025 80.1099 144.024C80.7788 144.023 81.4402 143.884 82.0525 143.614C82.6647 143.345 83.2145 142.952 83.667 142.459C86.5877 139.302 89.2555 135.919 91.6455 132.343C91.9895 131.82 92.4891 131.419 93.0738 131.195C93.6585 130.972 94.2986 130.938 94.9037 131.098C97.9303 131.899 101.031 132.39 104.157 132.563C104.813 132.598 105.472 132.616 106.108 132.616C116.768 132.616 122.279 127.811 125.027 123.783C125.747 122.724 126.016 121.423 125.776 120.166C125.535 118.909 124.806 117.799 123.747 117.08C122.688 116.36 121.387 116.091 120.13 116.331C118.873 116.572 117.762 117.301 117.043 118.36C114.262 122.438 108.572 123.85 100.585 122.461C100.169 122.388 99.7726 122.228 99.4229 121.99C99.0732 121.753 98.7778 121.444 98.5563 121.084C98.3347 120.724 98.1921 120.321 98.1377 119.902C98.0834 119.483 98.1186 119.057 98.241 118.653C99.2171 115.462 99.8179 112.168 100.031 108.838C100.07 108.229 100.294 107.646 100.674 107.168C101.054 106.69 101.571 106.339 102.155 106.164C122.897 99.9497 133.478 88.0756 138.702 79.2104C140.864 75.5519 142.578 71.647 143.809 67.5795C144.016 66.8996 144.065 66.1811 143.952 65.4793C143.839 64.7775 143.566 64.1109 143.155 63.5307C142.642 62.7974 141.932 62.2247 141.106 61.8789C140.281 61.5331 139.374 61.4286 138.491 61.5773C137.609 61.7261 136.787 62.1221 136.12 62.7194C135.453 63.3166 134.97 64.0907 134.726 64.9516C133.709 68.6723 131.819 72.4604 128.772 76.8754C128.331 77.5148 127.659 77.9575 126.898 78.1096C126.136 78.2616 125.346 78.1111 124.693 77.6899C123.856 77.1518 123.057 76.5566 122.302 75.9086C118.153 72.3432 115.874 67.5854 115.525 61.767C115.487 61.1349 115.324 60.5166 115.047 59.9473C114.769 59.378 114.382 58.869 113.908 58.4492C113.434 58.0294 112.882 57.7072 112.283 57.5008C111.684 57.2945 111.05 57.2081 110.418 57.2465C109.786 57.285 109.168 57.4476 108.598 57.7251C108.029 58.0025 107.52 58.3894 107.1 58.8635C106.68 59.3377 106.358 59.8899 106.151 60.4886C105.945 61.0874 105.859 61.7209 105.897 62.353C106.419 71.0659 110.143 78.4663 116.665 83.7749L116.858 83.9301L116.935 83.9887C117.297 84.2791 117.586 84.6497 117.78 85.0712C117.974 85.4927 118.068 85.9536 118.053 86.4174C118.038 86.8812 117.916 87.3352 117.695 87.7436C117.475 88.1519 117.162 88.5033 116.782 88.77C112.367 91.7803 107.566 94.1827 102.51 95.9126C102.114 96.0509 101.692 96.1041 101.274 96.0688C100.855 96.0334 100.449 95.9103 100.081 95.7074C99.7136 95.5045 99.3928 95.2264 99.1399 94.8912C98.8869 94.5561 98.7074 94.1713 98.6131 93.7622C97.5173 89.0043 95.9761 84.3872 94.4612 79.9135C91.625 71.479 88.9498 63.5073 88.6656 54.4018C88.5543 50.8129 88.6656 46.4301 88.9938 41.3735C89.0412 40.6546 89.3464 39.9769 89.8535 39.4651C90.3606 38.9532 91.0354 38.6416 91.7539 38.5874C98.6189 38.0747 111.303 36.0561 119.115 28.2924C119.796 27.6207 120.262 26.7615 120.453 25.8242C120.645 24.8869 120.553 23.9138 120.19 23.0287C119.827 22.1436 119.209 21.3864 118.414 20.8536C117.619 20.3208 116.684 20.0364 115.727 20.0366C115.096 20.0341 114.471 20.1566 113.888 20.3969C113.305 20.6373 112.775 20.9908 112.329 21.437C107.641 26.0952 99.6884 27.9379 93.8459 28.6645C93.3957 28.7219 92.9382 28.676 92.5084 28.5303C92.0785 28.3845 91.6875 28.1428 91.365 27.8235C91.0424 27.5041 90.7969 27.1155 90.647 26.6871C90.4971 26.2587 90.4468 25.8018 90.4998 25.351C91.4023 17.6635 92.3194 11.8071 92.3575 11.561C92.4571 10.9356 92.4326 10.2967 92.2853 9.68082C92.138 9.06491 91.8709 8.48404 91.4991 7.97136C91.1273 7.45869 90.6581 7.02426 90.1184 6.69288C89.5787 6.36149 88.979 6.13965 88.3536 6.04C87.7281 5.94035 87.0892 5.96486 86.4732 6.11213C85.8572 6.25939 85.2763 6.52652 84.7635 6.89827C84.2508 7.27003 83.8163 7.73911 83.4849 8.27876C83.1535 8.8184 82.9316 9.41804 82.8319 10.0434C82.6532 11.1626 78.4955 37.6147 79.0229 54.686C79.3511 65.2329 82.5184 74.6518 85.3166 82.9692C89.9197 96.6655 93.8957 108.49 85.97 123.123C85.6954 123.629 85.2805 124.045 84.7752 124.321C84.2699 124.597 83.6958 124.721 83.1217 124.678C82.5477 124.635 81.9982 124.428 81.5392 124.08C81.0803 123.733 80.7315 123.26 80.5348 122.719C76.9368 112.808 72.0083 103.433 65.8846 94.8491C63.1363 90.9965 60.2297 87.0942 57.1531 82.9663C50.1445 73.562 42.9073 63.8501 37.393 54.434C37.1939 54.0927 37.0645 53.7151 37.0125 53.3234C36.9604 52.9316 36.9866 52.5334 37.0897 52.1519C37.1927 51.7703 37.3705 51.413 37.6127 51.1007C37.8549 50.7884 38.1567 50.5273 38.5006 50.3325C45.1547 46.5678 53.558 38.0512 55.8141 18.8676C55.9633 17.5972 55.6017 16.3196 54.8088 15.3158C54.0159 14.312 52.8566 13.6643 51.5861 13.5151C50.3155 13.3659 49.0378 13.7275 48.0338 14.5203C47.0299 15.3131 46.3821 16.4722 46.2329 17.7426C44.5775 31.8227 39.2008 38.2768 34.9582 41.2094C34.576 41.4744 34.1373 41.6465 33.6769 41.7122C33.2165 41.7778 32.7472 41.7351 32.3062 41.5874C31.8652 41.4398 31.4648 41.1913 31.1368 40.8617C30.8087 40.5321 30.5621 40.1306 30.4166 39.6889C29.4391 36.8513 28.8478 33.8951 28.6586 30.8999C28.5375 29.6715 27.95 28.5364 27.017 27.7281C26.084 26.9199 24.8766 26.5002 23.6434 26.5554C22.4101 26.6106 21.2451 27.1365 20.388 28.0248C19.531 28.9132 19.0472 30.0963 19.0364 31.3305C19.7718 47.1919 32.2479 65.4145 43.883 81.2495C44.2048 81.6877 44.4008 82.2053 44.4502 82.7467C44.4995 83.288 44.4002 83.8326 44.163 84.3217C43.9258 84.8108 43.5597 85.226 43.104 85.5225C42.6484 85.819 42.1204 85.9856 41.5771 86.0043C32.6112 86.2973 20.5864 85.2836 14.1989 78.6801C13.7578 78.2232 13.2307 77.858 12.648 77.6055C12.0652 77.3531 11.4382 77.2183 10.8032 77.2091C10.1682 77.1998 9.53754 77.3162 8.94766 77.5516C8.35777 77.787 7.82027 78.1366 7.36606 78.5805C6.92505 79.0146 6.57506 79.5322 6.33659 80.1032C6.09811 80.6742 5.97594 81.287 5.97723 81.9057C5.97144 82.5879 6.10018 83.2645 6.35608 83.8969C6.61198 84.5293 6.99003 85.105 7.46861 85.5913C13.8268 92.0366 23.7977 95.4204 37.1088 95.684C42.0652 95.7639 47.02 95.4475 51.926 94.7377C52.0684 94.7146 52.2124 94.7029 52.3567 94.7026Z" fill="#8D2F2A"/>
<path d="M51.3546 87.2051C50.8653 87.2055 50.3834 87.0857 49.9512 86.8564C49.519 86.627 49.1497 86.295 48.8758 85.8896L41.6885 75.2607C41.2444 74.6042 41.0793 73.7981 41.2296 73.0198C41.3799 72.2416 41.8332 71.5549 42.4898 71.1108C43.1465 70.6668 43.9526 70.5017 44.731 70.652C45.5093 70.8023 46.1961 71.2555 46.6402 71.9121L53.8276 82.541C54.1319 82.9903 54.3081 83.5139 54.3374 84.0557C54.3666 84.5975 54.2478 85.1371 53.9936 85.6165C53.7394 86.0959 53.3595 86.4971 52.8946 86.7769C52.4297 87.0568 51.8973 87.2048 51.3546 87.2051Z" fill="#8D2F2A"/>
<path d="M38.4684 68.1475C37.9791 68.1476 37.4973 68.0277 37.0651 67.7984C36.633 67.5691 36.2637 67.2373 35.9896 66.832L33.877 63.709C33.6565 63.3839 33.5023 63.0186 33.423 62.6338C33.3437 62.2491 33.341 61.8526 33.415 61.4668C33.489 61.081 33.6383 60.7136 33.8543 60.3855C34.0703 60.0575 34.3488 59.7751 34.674 59.5547C34.9991 59.3342 35.3645 59.18 35.7493 59.1007C36.134 59.0215 36.5306 59.0187 36.9164 59.0927C37.3022 59.1667 37.6697 59.316 37.9978 59.532C38.3259 59.748 38.6083 60.0265 38.8288 60.3516L40.9413 63.4746C41.2456 63.9239 41.4219 64.4475 41.4511 64.9893C41.4804 65.5311 41.3615 66.0707 41.1074 66.5501C40.8532 67.0295 40.4732 67.4307 40.0083 67.7105C39.5434 67.9904 39.011 68.1384 38.4684 68.1387V68.1475Z" fill="#8D2F2A"/>
</g>
<defs>
<clipPath id="clip0">
<rect width="150" height="150" fill="white"/>
</clipPath>
</defs>
</svg>
