<svg width="164" height="142" viewBox="0 0 164 142" fill="none" xmlns="http://www.w3.org/2000/svg">
<g clip-path="url(#clip0)">
<path d="M112.612 120.349L149.266 72.7977C153.355 67.4935 156.042 61.2062 157.072 54.5375C158.101 47.8689 157.437 41.042 155.144 34.7103C152.85 28.3787 149.004 22.7542 143.973 18.3751C138.943 13.9961 132.896 11.0091 126.411 9.7C115.586 7.5639 104.582 6.50877 93.5569 6.54954L70.4431 6.54954C59.4173 6.51093 48.414 7.56825 37.5887 9.70655C31.1054 11.0162 25.0595 14.0032 20.0298 18.3818C15 22.7604 11.1545 28.3841 8.86125 34.7147C6.56802 41.0454 5.90378 47.8712 6.93209 54.539C7.9604 61.2068 10.6469 67.4935 14.7344 72.7977L51.3877 120.349C59.0208 130.245 69.8762 135.604 81.9584 135.45H82.5638C94.4345 135.447 105.088 130.105 112.612 120.349ZM148.026 55.9821C148.694 56.5138 149.129 57.2942 149.235 58.1526C149.342 59.011 149.111 59.8774 148.593 60.5622L142.151 69.0387C141.626 69.7142 140.862 70.1527 140.024 70.2603C139.186 70.3679 138.34 70.1361 137.667 69.6145C138.25 70.079 136.267 68.5087 137.667 69.6145C136.999 69.0828 136.564 68.3024 136.458 67.444C136.351 66.5856 136.582 65.7192 137.1 65.0344L143.542 56.5579C144.063 55.8758 144.827 55.4323 145.667 55.3244C146.508 55.2165 147.356 55.453 148.026 55.9821ZM129.153 35.4893L134.131 25.5047C134.518 24.735 135.188 24.1533 135.994 23.8868C136.799 23.6204 137.676 23.6908 138.431 24.0827C139.186 24.4747 139.759 25.1562 140.023 25.9782C140.288 26.8002 140.223 27.6956 139.842 28.4687L134.852 38.4566C134.661 38.8396 134.398 39.1805 134.078 39.4598C133.759 39.7391 133.388 39.9513 132.988 40.0844C132.588 40.2174 132.166 40.2687 131.747 40.2353C131.327 40.2018 130.918 40.0844 130.543 39.8895C130.168 39.6947 129.835 39.4263 129.561 39.0998C129.288 38.7732 129.08 38.3948 128.95 37.9862C128.819 37.5776 128.769 37.1468 128.802 36.7184C128.835 36.29 128.95 35.8723 129.14 35.4893H129.153ZM130.37 39.7914L130.274 39.7423L130.207 39.7063H130.175H130.143L130.028 39.6442L130.143 39.7063H130.175H130.207L130.274 39.7423L130.37 39.7914ZM104.492 27.3596L107.503 14.9541C107.583 14.5158 107.75 14.0989 107.993 13.7288C108.237 13.3588 108.552 13.0434 108.919 12.8021C109.286 12.5609 109.697 12.3987 110.127 12.3257C110.558 12.2527 110.999 12.2703 111.422 12.3774C111.846 12.4846 112.244 12.6791 112.591 12.9489C112.939 13.2187 113.228 13.5583 113.443 13.9466C113.657 14.3349 113.791 14.7639 113.837 15.2072C113.884 15.6505 113.841 16.0987 113.711 16.5244L110.703 28.9267C110.499 29.7692 109.976 30.4944 109.249 30.9429C108.521 31.3914 107.649 31.5264 106.824 31.3182C105.999 31.1099 105.289 30.5755 104.85 29.8325C104.411 29.0896 104.279 28.1989 104.483 27.3564L104.492 27.3596ZM106.84 31.3214L106.35 31.1971L106.168 31.1513L106.35 31.1971L106.834 31.3214H106.84ZM52.9028 12.5626C53.7273 12.354 54.5991 12.4885 55.3265 12.9363C56.0539 13.3842 56.5774 14.1088 56.7818 14.9508L59.7927 27.3564C59.9966 28.1989 59.8645 29.0896 59.4254 29.8325C58.9863 30.5755 58.2761 31.1099 57.4513 31.3182C56.6264 31.5264 55.7543 31.3914 55.0268 30.9429C54.2994 30.4944 53.7762 29.7692 53.5723 28.9267L50.5645 16.5244C50.3604 15.6823 50.492 14.7919 50.9305 14.049C51.369 13.306 52.0784 12.7714 52.9028 12.5626ZM25.846 24.0718C26.603 23.6778 27.4821 23.6072 28.29 23.8753C29.098 24.1434 29.7686 24.7283 30.1542 25.5014L35.1287 35.4893C35.3302 35.8732 35.4546 36.2942 35.4947 36.7278C35.5348 37.1613 35.4897 37.5987 35.3621 38.0143C35.2345 38.4298 35.0269 38.8152 34.7516 39.1477C34.4763 39.4803 34.1387 39.7533 33.7587 39.9509C33.3787 40.1484 32.9639 40.2665 32.5386 40.2981C32.1133 40.3298 31.6862 40.2744 31.2821 40.1352C30.8781 39.9961 30.5053 39.7759 30.1857 39.4876C29.866 39.1994 29.606 38.8489 29.4207 38.4566L24.4431 28.4687C24.0586 27.6955 23.9905 26.7981 24.2535 25.9736C24.5166 25.1492 25.0894 24.4651 25.846 24.0718ZM26.9063 69.3855C26.5815 69.7034 26.1954 69.9487 25.7726 70.1056C25.3499 70.2625 24.8997 70.3277 24.4509 70.2969C24.002 70.2661 23.5644 70.14 23.166 69.9268C22.7675 69.7135 22.417 69.4177 22.1368 69.0583L15.6953 60.5753C15.1742 59.8898 14.9409 59.021 15.0469 58.1599C15.153 57.2988 15.5896 56.516 16.2607 55.9837C16.9318 55.4514 17.7825 55.2132 18.6256 55.3215C19.4687 55.4298 20.2351 55.8757 20.7563 56.5611L27.1946 65.0376C27.6718 65.6744 27.9058 66.4669 27.8527 67.267C27.7997 68.0672 27.4632 68.8202 26.9063 69.3855ZM57.0156 109C56.6909 109.318 56.305 109.562 55.8826 109.719C55.4601 109.876 55.0103 109.941 54.5619 109.91C54.1135 109.879 53.6762 109.753 53.2781 109.54C52.8799 109.327 52.5296 109.032 52.2494 108.673L29.6225 78.9023C29.3557 78.564 29.1575 78.1748 29.0395 77.7574C28.9215 77.34 28.8861 76.9027 28.9353 76.4712C28.9846 76.0397 29.1175 75.6225 29.3263 75.244C29.5351 74.8655 29.8156 74.5333 30.1515 74.2667C30.4874 74.0001 30.8719 73.8045 31.2826 73.6914C31.6932 73.5782 32.1219 73.5497 32.5435 73.6076C32.965 73.6654 33.3711 73.8084 33.738 74.0283C34.1049 74.2482 34.4252 74.5405 34.6803 74.8882L57.3103 104.659C57.785 105.296 58.0168 106.088 57.9626 106.886C57.9084 107.685 57.5718 108.436 57.0156 109ZM57.8709 88.3079C57.1139 88.7018 56.2348 88.7725 55.4269 88.5044C54.6189 88.2363 53.9484 87.6513 53.5627 86.8783L35.3049 50.2373C35.0834 49.8529 34.9412 49.4262 34.8871 48.9836C34.8329 48.541 34.868 48.0917 34.9901 47.6634C35.1122 47.2351 35.3188 46.8369 35.5971 46.4932C35.8755 46.1494 36.2197 45.8674 36.6087 45.6646C36.9976 45.4617 37.4231 45.3422 37.8589 45.3134C38.2948 45.2847 38.7318 45.3472 39.143 45.4973C39.5543 45.6474 39.9312 45.8817 40.2506 46.186C40.5699 46.4903 40.825 46.8581 41 47.2668L59.2578 83.9077C59.644 84.68 59.7141 85.5773 59.4529 86.4024C59.1916 87.2274 58.6203 87.9128 57.8645 88.3079H57.8709ZM73.6206 97.3634C73.2061 97.4838 72.7721 97.5182 72.3443 97.4646C71.9165 97.4109 71.5035 97.2704 71.1298 97.0511C70.756 96.8319 70.429 96.5385 70.1681 96.1881C69.9071 95.8378 69.7175 95.4376 69.6103 95.0112L56.3558 40.377C56.1519 39.5345 56.2841 38.6438 56.7232 37.9008C57.1623 37.1578 57.8724 36.6234 58.6973 36.4152C59.5222 36.2069 60.3943 36.3419 61.1217 36.7904C61.8492 37.2389 62.3724 37.9642 62.5763 38.8067L75.8276 93.4409C76.0177 94.2597 75.8944 95.1217 75.483 95.8508C75.0717 96.5799 74.4032 97.1209 73.6142 97.3634H73.6206ZM85.4882 75.5785C85.4882 76.4461 85.1507 77.2782 84.55 77.8918C83.9493 78.5053 83.1346 78.85 82.2851 78.85C81.4356 78.85 80.6208 78.5053 80.0201 77.8918C79.4194 77.2782 79.082 76.4461 79.082 75.5785V39.919C79.082 39.0513 79.4194 38.2192 80.0201 37.6057C80.6208 36.9921 81.4356 36.6475 82.2851 36.6475C83.1346 36.6475 83.9493 36.9921 84.55 37.6057C85.1507 38.2192 85.4882 39.0513 85.4882 39.919V75.5785ZM85.4882 27.1601C85.4882 28.0277 85.1507 28.8598 84.55 29.4734C83.9493 30.0869 83.1346 30.4316 82.2851 30.4316C81.4356 30.4316 80.6208 30.0869 80.0201 29.4734C79.4194 28.8598 79.082 28.0277 79.082 27.1601V13.7469C79.082 12.8792 79.4194 12.0471 80.0201 11.4336C80.6208 10.82 81.4356 10.4754 82.2851 10.4754C83.1346 10.4754 83.9493 10.82 84.55 11.4336C85.1507 12.0471 85.4882 12.8792 85.4882 13.7469V27.1601ZM90.6709 97.3634C89.8824 97.1196 89.2149 96.5775 88.8047 95.8478C88.3945 95.1181 88.2726 94.256 88.4639 93.4376L101.715 38.8034C101.816 38.3858 101.997 37.9927 102.246 37.6464C102.496 37.3002 102.81 37.0076 103.171 36.7855C103.531 36.5634 103.931 36.416 104.348 36.3519C104.764 36.2878 105.189 36.3082 105.597 36.4119C106.007 36.5142 106.392 36.698 106.732 36.9528C107.072 37.2076 107.359 37.5283 107.577 37.8967C107.795 38.2651 107.94 38.6737 108.003 39.0994C108.066 39.525 108.047 39.9591 107.945 40.377L94.694 95.0112C94.5862 95.4386 94.3956 95.8396 94.1336 96.1905C93.8716 96.5414 93.5434 96.8352 93.1684 97.0544C92.7934 97.2737 92.3792 97.414 91.9503 97.467C91.5213 97.5201 91.0863 97.4849 90.6709 97.3634ZM105.021 83.9077L123.279 47.2668C123.464 46.8745 123.724 46.524 124.044 46.2357C124.363 45.9475 124.736 45.7273 125.14 45.5881C125.544 45.449 125.971 45.3936 126.397 45.4252C126.822 45.4569 127.237 45.575 127.617 45.7725C127.997 45.9701 128.334 46.2431 128.61 46.5757C128.885 46.9082 129.092 47.2936 129.22 47.7091C129.348 48.1246 129.393 48.562 129.353 48.9956C129.313 49.4292 129.188 49.8502 128.987 50.234L110.729 86.875C110.538 87.2585 110.276 87.6 109.956 87.8797C109.636 88.1595 109.265 88.372 108.865 88.5053C108.464 88.6386 108.042 88.6899 107.622 88.6563C107.203 88.6227 106.793 88.505 106.418 88.3097C106.043 88.1144 105.709 87.8455 105.436 87.5183C105.162 87.1912 104.955 86.8121 104.825 86.403C104.695 85.9938 104.646 85.5625 104.679 85.1338C104.713 84.7051 104.829 84.2873 105.021 83.9045V83.9077ZM107.263 109C106.706 108.435 106.369 107.683 106.315 106.882C106.261 106.082 106.495 105.29 106.972 104.652L129.602 74.8816C130.123 74.1996 130.887 73.7561 131.727 73.6482C132.568 73.5403 133.416 73.7767 134.086 74.3058C134.754 74.838 135.188 75.6187 135.294 76.477C135.399 77.3354 135.168 78.2015 134.65 78.8859L112.023 108.657C111.744 109.014 111.395 109.308 110.999 109.52C110.603 109.733 110.168 109.859 109.721 109.892C109.275 109.924 108.827 109.861 108.406 109.708C107.984 109.554 107.598 109.314 107.273 109H107.263Z" fill="#F4A590"/>
<path d="M161.168 32.4564C158.52 25.0536 154.042 18.4762 148.169 13.3633C142.297 8.25049 135.229 4.77611 127.653 3.2778C116.418 1.05888 104.999 -0.0367969 93.556 0.00628864L70.4422 0.00628864C58.9994 -0.0367969 47.5797 1.05888 36.3449 3.2778C28.783 4.802 21.7308 8.28333 15.8634 13.3885C9.9961 18.4937 5.51014 25.0517 2.83506 32.4347C0.159981 39.8177 -0.614644 47.7785 0.58535 55.5549C1.78534 63.3313 4.91978 70.6628 9.68854 76.8476L46.3547 124.396C55.2402 135.918 67.8861 142.167 81.9991 141.99H82.5692C96.442 141.99 108.88 135.774 117.643 124.389L154.313 76.8476C159.106 70.68 162.256 63.3512 163.457 55.5729C164.659 47.7947 163.87 39.8314 161.168 32.4564ZM149.265 72.7975L112.611 120.349C105.087 130.105 94.4336 135.447 82.5628 135.447H81.9574C69.8753 135.601 59.0199 130.242 51.3868 120.346L14.7335 72.7975C10.6444 67.4933 7.95662 61.206 6.92745 54.5373C5.89828 47.8686 6.56214 41.0418 8.8555 34.7101C11.1489 28.3785 14.9949 22.754 20.0257 18.3749C25.0564 13.9959 31.1033 11.0089 37.5878 9.69978C48.4133 7.56367 59.4166 6.50855 70.4422 6.54931L93.556 6.54931C104.582 6.5107 115.585 7.56802 126.41 9.70633C132.894 11.016 138.94 14.003 143.969 18.3816C148.999 22.7602 152.845 28.3839 155.138 34.7145C157.431 41.0452 158.095 47.8709 157.067 54.5388C156.039 61.2066 153.352 67.4933 149.265 72.7975Z" fill="#8D2F2A"/>
<path d="M53.5722 28.9268C53.7761 29.7693 54.2993 30.4945 55.0268 30.943C55.7543 31.3915 56.6263 31.5265 57.4512 31.3182C58.2761 31.11 58.9862 30.5756 59.4253 29.8326C59.8644 29.0896 59.9966 28.1989 59.7927 27.3564L56.7818 14.9509C56.6865 14.5276 56.5097 14.1279 56.2617 13.7752C56.0136 13.4224 55.6993 13.1236 55.337 12.8963C54.9747 12.6689 54.5717 12.5175 54.1515 12.4508C53.7313 12.3842 53.3023 12.4037 52.8896 12.5082C52.4768 12.6126 52.0886 12.8 51.7475 13.0593C51.4064 13.3186 51.1192 13.6447 50.9028 14.0186C50.6864 14.3924 50.545 14.8065 50.4869 15.2368C50.4288 15.667 50.4552 16.1047 50.5645 16.5245L53.5722 28.9268Z" fill="#8D2F2A"/>
<path d="M62.5699 38.8067C62.366 37.9642 61.8428 37.2389 61.1153 36.7904C60.3879 36.3419 59.5158 36.2069 58.6909 36.4152C57.866 36.6234 57.1559 37.1578 56.7168 37.9008C56.2777 38.6438 56.1455 39.5345 56.3494 40.377L69.6039 95.0113C69.8235 95.836 70.3502 96.5402 71.0716 96.9733C71.7929 97.4064 72.6515 97.534 73.4638 97.3288C74.2761 97.1237 74.9775 96.602 75.4181 95.8755C75.8586 95.1489 76.0033 94.2751 75.8212 93.4409L62.5699 38.8067Z" fill="#8D2F2A"/>
<path d="M29.4207 38.4566C29.6059 38.8488 29.866 39.1994 30.1856 39.4876C30.5053 39.7759 30.878 39.996 31.2821 40.1352C31.6861 40.2744 32.1133 40.3298 32.5386 40.2981C32.9639 40.2665 33.3787 40.1484 33.7587 39.9508C34.1387 39.7533 34.4762 39.4802 34.7516 39.1477C35.0269 38.8152 35.2345 38.4298 35.3621 38.0143C35.4897 37.5987 35.5347 37.1613 35.4947 36.7278C35.4546 36.2942 35.3301 35.8731 35.1287 35.4893L30.151 25.5014C29.7552 24.7474 29.0859 24.1818 28.2866 23.9257C27.4873 23.6697 26.6216 23.7437 25.8751 24.1318C25.1286 24.5198 24.5606 25.1912 24.2929 26.0018C24.0252 26.8125 24.0791 27.6981 24.443 28.4687L29.4207 38.4566Z" fill="#8D2F2A"/>
<path d="M41 47.2668C40.8148 46.8746 40.5547 46.524 40.2351 46.2358C39.9154 45.9475 39.5427 45.7274 39.1386 45.5882C38.7346 45.449 38.3074 45.3936 37.8821 45.4253C37.4569 45.4569 37.0421 45.575 36.662 45.7726C36.282 45.9701 35.9445 46.2432 35.6691 46.5757C35.3938 46.9082 35.1863 47.2936 35.0586 47.7091C34.931 48.1247 34.886 48.5621 34.926 48.9957C34.9661 49.4292 35.0906 49.8503 35.2921 50.2341L53.5499 86.875C53.7351 87.2673 53.9952 87.6178 54.3148 87.9061C54.6345 88.1943 55.0072 88.4145 55.4113 88.5537C55.8153 88.6928 56.2425 88.7482 56.6678 88.7166C57.093 88.6849 57.5078 88.5668 57.8879 88.3693C58.2679 88.1717 58.6054 87.8987 58.8808 87.5662C59.1561 87.2336 59.3636 86.8483 59.4912 86.4327C59.6188 86.0172 59.6639 85.5798 59.6239 85.1462C59.5838 84.7126 59.4593 84.2916 59.2578 83.9078L41 47.2668Z" fill="#8D2F2A"/>
<path d="M20.753 56.5612C20.498 56.2135 20.1776 55.9212 19.8108 55.7014C19.4439 55.4815 19.0378 55.3385 18.6162 55.2806C18.1947 55.2227 17.766 55.2512 17.3553 55.3644C16.9447 55.4776 16.5602 55.6731 16.2243 55.9397C15.8884 56.2063 15.6079 56.5385 15.3991 56.917C15.1903 57.2955 15.0574 57.7127 15.0081 58.1442C14.9589 58.5758 14.9943 59.013 15.1123 59.4304C15.2302 59.8478 15.4284 60.237 15.6953 60.5753L22.1336 69.0518C22.6548 69.7373 23.4212 70.1832 24.2643 70.2915C25.1074 70.3998 25.958 70.1616 26.6292 69.6293C27.3003 69.0969 27.7369 68.3141 27.8429 67.4531C27.9489 66.592 27.7157 65.7231 27.1945 65.0377L20.753 56.5612Z" fill="#8D2F2A"/>
<path d="M34.6738 74.8783C34.4187 74.5307 34.0984 74.2384 33.7315 74.0185C33.3647 73.7986 32.9586 73.6556 32.537 73.5977C32.1154 73.5399 31.6868 73.5684 31.2761 73.6815C30.8654 73.7947 30.4809 73.9903 30.1451 74.2569C29.8092 74.5234 29.5286 74.8557 29.3198 75.2342C29.111 75.6127 28.9781 76.0299 28.9289 76.4614C28.8796 76.8929 28.915 77.3301 29.033 77.7475C29.151 78.1649 29.3492 78.5542 29.6161 78.8925L52.243 108.663C52.7674 109.338 53.5311 109.773 54.3682 109.876C55.2053 109.979 56.0484 109.741 56.7146 109.213C57.3807 108.685 57.8162 107.91 57.9265 107.056C58.0369 106.203 57.8131 105.339 57.3039 104.652L34.6738 74.8783Z" fill="#8D2F2A"/>
<path d="M82.2851 10.4753C81.4356 10.4753 80.6208 10.82 80.0201 11.4335C79.4194 12.0471 79.082 12.8792 79.082 13.7469V27.1601C79.082 28.0277 79.4194 28.8598 80.0201 29.4734C80.6208 30.0869 81.4356 30.4316 82.2851 30.4316C83.1346 30.4316 83.9493 30.0869 84.55 29.4734C85.1507 28.8598 85.4882 28.0277 85.4882 27.1601V13.7469C85.4882 12.8792 85.1507 12.0471 84.55 11.4335C83.9493 10.82 83.1346 10.4753 82.2851 10.4753Z" fill="#8D2F2A"/>
<path d="M82.2851 36.6475C81.4356 36.6475 80.6208 36.9921 80.0201 37.6057C79.4194 38.2192 79.082 39.0513 79.082 39.919V75.5785C79.082 76.4461 79.4194 77.2782 80.0201 77.8918C80.6208 78.5053 81.4356 78.85 82.2851 78.85C83.1346 78.85 83.9493 78.5053 84.55 77.8918C85.1507 77.2782 85.4882 76.4461 85.4882 75.5785V39.919C85.4882 39.0513 85.1507 38.2192 84.55 37.6057C83.9493 36.9921 83.1346 36.6475 82.2851 36.6475Z" fill="#8D2F2A"/>
<path d="M106.84 31.3182L106.174 31.1481L106.84 31.3182Z" fill="#8D2F2A"/>
<path d="M106.834 31.3182C107.658 31.5178 108.526 31.379 109.252 30.9318C109.977 30.4847 110.502 29.7647 110.713 28.9268L113.711 16.5245C113.82 16.1047 113.847 15.667 113.788 15.2368C113.73 14.8065 113.589 14.3924 113.373 14.0186C113.156 13.6447 112.869 13.3186 112.528 13.0593C112.187 12.8 111.799 12.6126 111.386 12.5082C110.973 12.4037 110.544 12.3842 110.124 12.4508C109.704 12.5175 109.301 12.6689 108.938 12.8963C108.576 13.1236 108.262 13.4224 108.014 13.7752C107.766 14.1279 107.589 14.5276 107.494 14.9509L104.483 27.3564C104.382 27.7743 104.363 28.2083 104.426 28.6337C104.49 29.0591 104.635 29.4676 104.853 29.8356C105.072 30.2036 105.359 30.524 105.699 30.7784C106.039 31.0328 106.424 31.2163 106.834 31.3182Z" fill="#8D2F2A"/>
<path d="M105.597 36.4152C105.189 36.3115 104.764 36.2911 104.348 36.3552C103.931 36.4193 103.531 36.5666 103.171 36.7888C102.81 37.0109 102.496 37.3034 102.246 37.6497C101.997 37.9959 101.816 38.3891 101.715 38.8067L88.4639 93.4409C88.3629 93.8581 88.3434 94.2915 88.4065 94.7163C88.4695 95.1412 88.6138 95.5492 88.8313 95.9171C89.0487 96.285 89.3349 96.6055 89.6737 96.8604C90.0124 97.1153 90.3969 97.2996 90.8054 97.4027C91.2138 97.5058 91.6382 97.5258 92.0541 97.4614C92.4701 97.397 92.8696 97.2496 93.2298 97.0275C93.59 96.8054 93.9039 96.5131 94.1534 96.1671C94.403 95.8212 94.5834 95.4284 94.6844 95.0112L107.945 40.377C108.046 39.9594 108.066 39.5255 108.002 39.1003C107.939 38.675 107.794 38.2667 107.576 37.8988C107.358 37.5308 107.071 37.2103 106.731 36.9558C106.392 36.7012 106.006 36.5175 105.597 36.4152Z" fill="#8D2F2A"/>
<path d="M130.463 39.8405L130.37 39.7914L130.463 39.8405Z" fill="#8D2F2A"/>
<path d="M130.028 39.6147L129.983 39.5918L130.028 39.6147Z" fill="#8D2F2A"/>
<path d="M130.367 39.7914L130.024 39.6147L130.367 39.7914Z" fill="#8D2F2A"/>
<path d="M130.556 39.8896L130.463 39.8405L130.556 39.8896L130.598 39.9092L130.556 39.8896C131.314 40.2704 132.187 40.3337 132.989 40.066C133.792 39.7983 134.46 39.2207 134.852 38.4567L139.842 28.4687C140.227 27.6952 140.296 26.7971 140.033 25.9719C139.77 25.1467 139.196 24.462 138.439 24.0686C138.064 23.8737 137.655 23.7562 137.236 23.7228C136.816 23.6894 136.394 23.7407 135.994 23.8737C135.186 24.1424 134.516 24.728 134.131 25.5015L129.153 35.4861C128.962 35.8693 128.846 36.2872 128.813 36.716C128.78 37.1448 128.83 37.576 128.961 37.985C129.091 38.394 129.299 38.7728 129.573 39.0996C129.847 39.4264 130.181 39.6948 130.556 39.8896Z" fill="#8D2F2A"/>
<path d="M110.729 86.8783L128.987 50.2374C129.188 49.8536 129.313 49.4325 129.353 48.9989C129.393 48.5654 129.348 48.128 129.22 47.7124C129.092 47.2969 128.885 46.9115 128.61 46.579C128.334 46.2465 127.997 45.9734 127.617 45.7759C127.237 45.5783 126.822 45.4602 126.397 45.4286C125.971 45.3969 125.544 45.4523 125.14 45.5915C124.736 45.7307 124.363 45.9508 124.044 46.2391C123.724 46.5273 123.464 46.8779 123.279 47.2701L105.021 83.9111C104.829 84.2939 104.713 84.7117 104.679 85.1404C104.646 85.5691 104.695 86.0004 104.825 86.4096C104.955 86.8188 105.162 87.1978 105.436 87.5249C105.709 87.8521 106.043 88.121 106.418 88.3163C106.793 88.5116 107.203 88.6293 107.622 88.6629C108.042 88.6965 108.464 88.6452 108.865 88.5119C109.265 88.3786 109.636 88.1661 109.956 87.8863C110.276 87.6066 110.538 87.2651 110.729 86.8816V86.8783Z" fill="#8D2F2A"/>
<path d="M137.658 69.6276C136.258 68.5219 138.241 70.0922 137.658 69.6276V69.6276Z" fill="#8D2F2A"/>
<path d="M148.026 55.9821C147.355 55.4534 146.507 55.2174 145.667 55.326C144.826 55.4345 144.062 55.8786 143.542 56.5612L137.094 65.0376C136.576 65.7221 136.344 66.5882 136.45 67.4466C136.555 68.3049 136.99 69.0856 137.657 69.6178C138.331 70.1386 139.177 70.3699 140.014 70.2623C140.852 70.1547 141.616 69.7167 142.142 69.042L148.583 60.5655C149.103 59.8816 149.336 59.0153 149.232 58.1562C149.127 57.2971 148.694 56.5153 148.026 55.9821Z" fill="#8D2F2A"/>
<path d="M134.105 74.3026C133.435 73.7735 132.587 73.537 131.747 73.6449C130.906 73.7529 130.142 74.1963 129.621 74.8784L106.994 104.649C106.73 104.988 106.535 105.377 106.42 105.793C106.304 106.21 106.271 106.645 106.322 107.075C106.372 107.505 106.506 107.92 106.715 108.296C106.924 108.673 107.204 109.003 107.538 109.269C107.873 109.534 108.256 109.729 108.665 109.842C109.074 109.955 109.501 109.984 109.921 109.928C110.341 109.871 110.746 109.73 111.112 109.512C111.479 109.295 111.799 109.005 112.055 108.66L134.682 78.8893C135.2 78.2028 135.431 77.3341 135.323 76.4741C135.215 75.614 134.777 74.833 134.105 74.3026Z" fill="#8D2F2A"/>
</g>
<defs>
<clipPath id="clip0">
<rect width="164" height="142" fill="white"/>
</clipPath>
</defs>
</svg>
